<?xml version="1.0" encoding="UTF-8" standalone="no"?>
<!-- Created with Inkscape (http://www.inkscape.org/) -->

<svg
   width="110mm"
   height="197mm"
   viewBox="0 0 110 197"
   version="1.1"
   id="svg5"
   inkscape:version="1.1 (c4e8f9e, 2021-05-24)"
   sodipodi:docname="test-favicon.svg"
   xmlns:inkscape="http://www.inkscape.org/namespaces/inkscape"
   xmlns:sodipodi="http://sodipodi.sourceforge.net/DTD/sodipodi-0.dtd"
   xmlns="http://www.w3.org/2000/svg"
   xmlns:svg="http://www.w3.org/2000/svg">
  <sodipodi:namedview
     id="namedview7"
     pagecolor="#ffffff"
     bordercolor="#666666"
     borderopacity="1.0"
     inkscape:pageshadow="2"
     inkscape:pageopacity="0.0"
     inkscape:pagecheckerboard="0"
     inkscape:document-units="mm"
     showgrid="false"
     inkscape:zoom="0.67081229"
     inkscape:cx="397.27954"
     inkscape:cy="579.1486"
     inkscape:window-width="1312"
     inkscape:window-height="1003"
     inkscape:window-x="0"
     inkscape:window-y="25"
     inkscape:window-maximized="0"
     inkscape:current-layer="layer1" />
  <defs
     id="defs2">
    <rect
       x="237.02607"
       y="208.7022"
       width="587.34762"
       height="412.93221"
       id="rect1678" />
  </defs>
  <g
     inkscape:label="Layer 1"
     inkscape:groupmode="layer"
     id="layer1">
    <path
       style="fill:#000000;fill-opacity:1;fill-rule:nonzero;stroke:none;stroke-width:0.264583"
       id="path150"
       d="m 154.17917,69.667704 c -9.79579,-3.903324 -19.46405,-8.115033 -29.10655,-12.379687 0,0 -2.53422,1.688748 -2.53422,1.688748 v 0 c 9.68034,4.025288 19.38143,8.0191 28.8446,12.539845 0,0 2.79617,-1.848906 2.79617,-1.848906 z" />
    <path
       style="fill:#000000;fill-opacity:1;fill-rule:nonzero;stroke:none;stroke-width:0.264583"
       id="path152"
       d="m 99.815866,55.578499 c -6.981164,11.012955 -14.307198,21.800756 -21.602597,32.606077 0,0 1.841146,-0.804341 1.841146,-0.804341 v 0 c 7.518997,-11.150193 14.956006,-22.36592 22.972245,-33.169682 0,0 -3.210794,1.367946 -3.210794,1.367946 z" />
    <path
       style="fill:#000000;fill-opacity:1;fill-rule:nonzero;stroke:none;stroke-width:0.264583"
       id="path154"
       d="m 64.27154,112.66482 c 8.541546,10.98245 4.253354,5.26248 12.82972,17.186 0,0 2.087348,-1.23106 2.087348,-1.23106 v 0 c -8.386453,-12.02604 -4.349901,-6.14749 -12.123182,-17.62637 0,0 -2.793886,1.67143 -2.793886,1.67143 z" />
    <path
       style="fill:#000000;fill-opacity:1;fill-rule:nonzero;stroke:none;stroke-width:0.264583"
       id="path156"
       d="m 106.75221,159.73671 c 7.37107,-4.81354 14.81951,-9.50565 22.17121,-14.34918 1.32155,-0.87068 2.66244,-1.7132 3.95776,-2.62243 1.21203,-0.85077 2.37426,-1.77036 3.56139,-2.65554 2.79496,-2.08011 5.4593,-4.32237 8.09861,-6.59339 0,0 -3.33397,1.35285 -3.33397,1.35285 v 0 c -2.57354,2.23849 -5.16818,4.45402 -7.90844,6.48945 -1.17859,0.87563 -2.33655,1.77972 -3.53577,2.62688 -1.25014,0.88315 -2.53659,1.7138 -3.81029,2.56262 -7.37252,4.91323 -14.86041,9.64736 -22.32874,14.41273 0,0 3.12824,-1.22399 3.12824,-1.22399 z" />
    <path
       style="fill:#000000;fill-opacity:1;fill-rule:nonzero;stroke:none;stroke-width:0.264583"
       id="path158"
       d="m 118.82151,114.59794 c 1.73196,-0.68077 3.45878,-1.37478 5.19588,-2.04232 4.25636,-1.63565 6.81722,-2.50916 11.05565,-4.2126 4.90049,-1.96952 9.7208,-4.1138 14.51237,-6.33149 5.486,-2.660863 10.91648,-5.433632 16.35159,-8.196218 0,0 2.39362,-1.916851 2.39362,-1.916851 v 0 c -5.36876,2.714485 -10.7378,5.428734 -16.15239,8.051223 -4.82459,2.250466 -9.67124,4.445296 -14.61047,6.436486 -3.29695,1.32913 -7.66304,2.92728 -11.00009,4.17004 -1.65647,0.6169 -3.31265,1.23462 -4.96897,1.85193 0,0 -2.77719,2.1898 -2.77719,2.1898 z" />
    <path
       style="fill:#000000;fill-opacity:1;fill-rule:nonzero;stroke:none;stroke-width:0.264583"
       id="path160"
       d="m 155.08894,108.42632 c -2.02008,2.67483 -4.09105,5.31067 -6.16198,7.94613 -0.55585,0.70737 -1.14132,1.39227 -1.67015,2.12006 -1.07141,1.4745 -1.71648,2.63101 -2.64407,4.18433 -0.87871,1.50998 -1.73889,3.03479 -2.50909,4.60385 -0.32332,0.65867 -0.57272,1.34731 -0.96914,1.96575 0,0 3.60124,-1.61316 3.60124,-1.61316 v 0 c 0.99927,-2.18577 1.94364,-4.39988 3.22938,-6.44287 1.05062,-1.75456 1.41518,-2.44404 2.62602,-4.1281 2.49233,-3.46637 5.27455,-6.72618 7.91018,-10.08121 0,0 -3.41239,1.44522 -3.41239,1.44522 z" />
    <path
       style="fill:#000000;fill-opacity:1;fill-rule:nonzero;stroke:none;stroke-width:0.264583"
       id="path162"
       d="m 128.0982,117.14329 c 0.44518,0.0421 0.89827,0.0327 1.33553,0.12628 4.07836,0.87268 7.09131,3.96903 9.83793,6.88935 2.2545,2.72939 3.99725,5.83565 5.2495,9.13962 0,0 3.34983,-1.87267 3.34983,-1.87267 v 0 c -1.41866,-3.28387 -3.14421,-6.43385 -5.45749,-9.18343 -2.81689,-2.87622 -5.85692,-6.06583 -9.86536,-7.17836 -0.41536,-0.11528 -0.8525,-0.12846 -1.27876,-0.19269 0,0 -3.17118,2.2719 -3.17118,2.2719 z" />
    <path
       style="fill:#000000;fill-opacity:1;fill-rule:nonzero;stroke:none;stroke-width:0.264583"
       id="path164"
       d="m 119.87381,108.24093 c 1.17311,-0.69008 2.32763,-1.41279 3.51935,-2.07023 0.71782,-0.39601 1.47611,-0.71411 2.20564,-1.08812 2.08546,-1.06915 4.15289,-2.17325 6.23896,-3.2412 6.02266,-3.083244 12.10497,-6.032814 18.21037,-8.947234 3.37773,-1.55145 6.70665,-3.219601 10.15106,-4.623138 1.93397,-0.788065 3.91264,-1.438545 5.89366,-2.093783 0,0 2.97668,-2.314112 2.97668,-2.314112 v 0 c -2.03254,0.696947 -4.07593,1.370716 -6.06448,2.188453 -3.56018,1.464024 -6.98705,3.228954 -10.47056,4.860041 -12.19671,5.904294 -24.42309,11.799053 -36.11348,18.670483 0,0 3.4528,-1.34116 3.4528,-1.34116 z" />
    <text
       xml:space="preserve"
       transform="matrix(0.26458333,0,0,0.26458333,-16.960159,22.876494)"
       id="text1676"
       style="font-style:normal;font-variant:normal;font-weight:normal;font-stretch:normal;font-size:266.667px;line-height:1.65;font-family:Zapfino;-inkscape-font-specification:Zapfino;white-space:pre;shape-inside:url(#rect1678);fill:#000000;fill-opacity:1;stroke:none"><tspan
         x="237.02539"
         y="446.95138"
         id="tspan6681">G</tspan></text>
  </g>
</svg>
